<svg aria-hidden="true" style="position: absolute; width: 0; height: 0; overflow: hidden;" version="1.1" xmlns="http://www.w3.org/2000/svg" xmlns:xlink="http://www.w3.org/1999/xlink">
<defs>
<symbol id="icon-align-left" viewBox="0 0 20 20">
<path d="M6 10l3 3v-2h8v-2h-8v-2l-3 3zM4 2c-0.553 0-1 0.047-1 0.6v14.8c0 0.551 0.447 0.6 1 0.6 0.552 0 1-0.049 1-0.6v-14.8c0-0.553-0.448-0.6-1-0.6z"></path>
</symbol>
<symbol id="icon-align-right" viewBox="0 0 20 20">
<path d="M11 7v2h-8v2h8v2l3-3-3-3zM15 2.6v14.8c0 0.551 0.448 0.6 1 0.6 0.553 0 1-0.049 1-0.6v-14.8c0-0.553-0.447-0.6-1-0.6-0.552 0-1 0.047-1 0.6z"></path>
</symbol>
<symbol id="icon-calendar" viewBox="0 0 20 20">
<path d="M17 3h-1v2h-3v-2h-6v2h-3v-2h-1c-1.101 0-2 0.9-2 2v12c0 1.1 0.899 2 2 2h14c1.1 0 2-0.9 2-2v-12c0-1.1-0.9-2-2-2zM17 17h-14v-8h14v8zM6.5 1h-2v3.5h2v-3.5zM15.5 1h-2v3.5h2v-3.5z"></path>
</symbol>
<symbol id="icon-circle-with-minus" viewBox="0 0 20 20">
<path d="M10 1.6c-4.639 0-8.4 3.761-8.4 8.4s3.761 8.4 8.4 8.4 8.4-3.761 8.4-8.4c0-4.639-3.761-8.4-8.4-8.4zM15 11h-10v-2h10v2z"></path>
</symbol>
<symbol id="icon-circle-with-plus" viewBox="0 0 20 20">
<path d="M10 1.6c-4.639 0-8.4 3.761-8.4 8.4s3.761 8.4 8.4 8.4 8.4-3.761 8.4-8.4c0-4.639-3.761-8.4-8.4-8.4zM15 11h-4v4h-2v-4h-4v-2h4v-4h2v4h4v2z"></path>
</symbol>
<symbol id="icon-folder" viewBox="0 0 20 20">
<path d="M18.405 4.799c-0.111-0.44-0.655-0.799-1.21-0.799h-6.814c-0.554 0-1.33-0.318-1.722-0.707l-0.596-0.588c-0.392-0.389-1.167-0.705-1.721-0.705h-3.255c-0.555 0-1.059 0.447-1.12 0.994l-0.292 3.006h16.931l-0.201-1.201zM19.412 7h-18.824c-0.342 0-0.61 0.294-0.577 0.635l0.923 9.669c0.037 0.394 0.369 0.696 0.766 0.696h16.6c0.397 0 0.728-0.302 0.766-0.696l0.923-9.669c0.033-0.341-0.235-0.635-0.577-0.635z"></path>
</symbol>
<symbol id="icon-inbox" viewBox="0 0 20 20">
<path d="M19.253 9.542c-0.388-0.416-2.265-2.271-3.122-3.118-0.263-0.259-0.639-0.424-1.033-0.424h-10.196c-0.394 0-0.77 0.165-1.033 0.424-0.858 0.847-2.734 2.701-3.122 3.118-0.485 0.521-0.723 0.902-0.624 1.449s0.466 2.654 0.556 3.074c0.088 0.419 0.684 0.935 1.24 0.935h16.162c0.556 0 1.152-0.516 1.241-0.935s0.457-2.527 0.556-3.074-0.139-0.929-0.625-1.449zM14.014 10.003c-0.101 0-0.193 0.052-0.238 0.133l-0.81 1.864h-5.932l-0.809-1.864c-0.045-0.081-0.137-0.133-0.238-0.133h-3.514l2.022-2.003h11.010l2.023 2.003h-3.514z"></path>
</symbol>
</defs>
</svg>
